<svg xmlns="http://www.w3.org/2000/svg" version="1.1" xmlns:xlink="http://www.w3.org/1999/xlink" xmlns:svgjs="http://svgjs.dev/svgjs" width="100%" height="100%" viewBox="0 0 1000 600"><rect width="1000" height="600" x="0" y="0" fill="#0b1020"/><g><rect width="333.3333333333333" height="333.3333333333333" rx="13.333333333333334" ry="13.333333333333334" y="273.9306249901764" fill="#8b5cf6" transform="matrix(0.49660640168005565,0,0,0.49660640168005565,0,81.19656316327287)" x="251.70838928222653"/><path d="M314.62369742345226 384.29390601554763L314.62369742345226 441.99379455786874L341.8307063716537 441.99379455786874Q359.344396914397 441.99379455786874 369.2677262650695 434.4362920722572Q379.2239143222012 426.87878958664567 379.2239143222012 411.9609368541777L379.2239143222012 411.9609368541777Q379.2239143222012 397.3059537733831 368.807704374641 389.7155925813125Q358.3914944270808 382.1580900957009 339.0048576161642 382.1580900957009L339.0048576161642 382.1580900957009Q332.597409856624 382.1580900957009 326.09138597770624 382.7495468119661Q319.5853620987885 383.3410035282314 314.62369742345226 384.29390601554763L314.62369742345226 384.29390601554763ZM341.8307063716537 458.09456072286724L341.8307063716537 458.09456072286724L295.46707155774993 458.09456072286724L295.46707155774993 379.06937168853796Q295.46707155774993 375.2906204457322 297.47145265176 373.28623935172214Q299.47583374577 371.28185825771214 303.25458498857574 370.0989448251816L303.25458498857574 370.0989448251816Q310.1220546385445 367.96312890533494 320.17681881505376 367.0102264180187Q330.231582991563 366.05732393070247 339.694890451807 366.05732393070247L339.694890451807 366.05732393070247Q369.2677262650695 366.05732393070247 383.95556805232326 378.1164692012217Q398.6105511331178 390.20847317820017 398.6105511331178 411.9609368541777L398.6105511331178 411.9609368541777Q398.6105511331178 425.92588709932943 392.2359620800367 436.3420970468897Q385.8285143204965 446.72544828799073 373.30934715954874 452.41000450542896Q360.75732129214174 458.09456072286724 341.8307063716537 458.09456072286724ZM381.0968605903745 506.3640005114035L342.29072826208227 451.94998261500047L356.4856894524483 444.85250201981745Q363.12314815720276 453.13289604753095 370.2206287523857 462.10332291088724Q377.31810934756874 471.10660848070273 383.95556805232326 479.6170134536305Q390.56016805061853 488.1274184265582 395.7847023776282 494.8963119571494Q400.97637799817875 501.63234678128146 403.8022267536683 505.41109802408727L403.8022267536683 505.41109802408727Q402.8821829728112 509.41986021210727 399.66202973981154 511.78568707716823Q396.474735213271 514.1515139422293 393.1560058608938 514.1515139422293L393.1560058608938 514.1515139422293Q389.14724367287374 514.1515139422293 386.55140586259853 512.1471328482193Q383.95556805232326 510.1427517542092 381.0968605903745 506.3640005114035L381.0968605903745 506.3640005114035ZM295.46707155774993 504.95107613365866L295.46707155774993 452.9028851023167L314.8537083686665 452.9028851023167L314.8537083686665 512.0485567288417Q313.4407839909217 512.5085786192702 311.07495712586075 513.1000353355355Q308.7091302607997 513.6914920518007 305.8832815053102 513.6914920518007L305.8832815053102 513.6914920518007Q300.6587471783005 513.6914920518007 298.0629093680252 511.555676131954Q295.46707155774993 509.41986021210727 295.46707155774993 504.95107613365866L295.46707155774993 504.95107613365866ZM539.8372714946759 384.52391696076194L539.8372714946759 384.52391696076194L539.8372714946759 384.52391696076194Q539.8372714946759 387.5797766614657 537.832890400666 390.07703835236345Q535.8285093066559 392.5743000432612 533.2326714963806 393.7572134757917L533.2326714963806 393.7572134757917Q527.3181043337281 389.4855816360982 518.9062754801778 385.7068303932924Q510.52730533308676 381.92807915048667 497.2523879235778 381.92807915048667L497.2523879235778 381.92807915048667Q482.82741578799755 381.92807915048667 471.3597272337435 388.53267914878194Q459.89203867948953 395.1701378535364 453.1560038553575 408.2807617307495Q446.3871103247663 421.4242443144217 446.3871103247663 440.8108811253382L446.3871103247663 440.8108811253382Q446.3871103247663 469.9236950481722 460.71350634096905 484.5786781289667Q475.0399023571718 499.2665199162205 497.9752794656798 499.2665199162205L497.9752794656798 499.2665199162205Q510.2644356814133 499.2665199162205 519.4977321964432 495.717779618629Q528.7310287114728 492.1690393210375 534.6455958741253 487.66739653612973L534.6455958741253 487.66739653612973Q537.0114227391864 488.62029902344597 539.1472386590331 491.0847020078845Q541.2830545788797 493.5819636987822 541.2830545788797 496.90069305115946L541.2830545788797 496.90069305115946Q541.2830545788797 499.2665199162205 539.9687063205126 501.50091195544474Q538.6543580621453 503.76816270112823 535.5984983614414 505.87111991451576L535.5984983614414 505.87111991451576Q530.1439530892176 509.6827298637807 520.6806456289737 512.6400134451069Q511.21733816872955 515.5972970264331 496.56235508793503 515.5972970264331L496.56235508793503 515.5972970264331Q476.9128486253451 515.5972970264331 460.9435172861833 507.18546817288296Q444.97418594702157 498.77363931933274 435.7408894319918 482.21285126390575Q426.54045162342123 465.65206320847875 426.54045162342123 440.8108811253382L426.54045162342123 440.8108811253382Q426.54045162342123 415.9696990421977 436.1023352030428 399.17890004155646Q445.6970774891235 382.38810104091516 461.43639788307104 373.97627218736494Q477.1428595705593 365.5973020402739 495.8394635458331 365.5973020402739L495.8394635458331 365.5973020402739Q508.85151130366853 365.5973020402739 518.8076993608004 368.42315079576343Q528.7310287114728 371.28185825771214 534.2841501030744 375.65206621678317Q539.8372714946759 380.0222741758542 539.8372714946759 384.52391696076194Z " fill="#111827" transform="matrix(0.49660640168005565,0,0,0.49660640168005565,0,81.19656316327287)"/><path d="M686.131404825387 393.67851100092963L686.131404825387 447.1607403609598L711.3496769837611 447.1607403609598Q727.5831782644536 447.1607403609598 736.781147095165 440.1556647614114Q746.0095727763091 433.150589161863 746.0095727763091 419.3231790653632L746.0095727763091 419.3231790653632Q746.0095727763091 405.73942377232595 736.3547511891055 398.70389132234476Q726.6999296019019 391.6988157227964 708.7303878465387 391.6988157227964L708.7303878465387 391.6988157227964Q702.791302012139 391.6988157227964 696.7608456264409 392.24703903058713Q690.7303892407427 392.7952623383779 686.131404825387 393.67851100092963L686.131404825387 393.67851100092963ZM711.3496769837611 462.0845970730411L711.3496769837611 462.0845970730411L668.3750610230535 462.0845970730411L668.3750610230535 388.8358717821114Q668.3750610230535 385.33333398233725 670.2329288994555 383.47546610593525Q672.0907967758575 381.6175982295333 675.5933345756316 380.52115161395176L675.5933345756316 380.52115161395176Q681.9588163160907 378.54145633581857 691.2786125485335 377.6582076732668Q700.598408780976 376.77495901071507 709.3699817056279 376.77495901071507L709.3699817056279 376.77495901071507Q736.781147095165 376.77495901071507 750.3953592386351 387.95262311955963Q763.9791145316724 399.160744078837 763.9791145316724 419.3231790653632L763.9791145316724 419.3231790653632Q763.9791145316724 432.2673404993113 758.0704855477055 441.9221620865149Q752.1313997133058 451.5465268232857 740.5273396984018 456.8155619481634Q728.8928228330649 462.0845970730411 711.3496769837611 462.0845970730411ZM747.7456132509798 506.8257103588522L711.7760728898206 456.3891660421039L724.9334322767984 449.81048634861503Q731.0857160642279 457.4856126576854 737.6643957577168 465.800332825845Q744.2430754512056 474.1455098444374 750.3953592386351 482.03383410653754Q756.5171861756318 489.92215836863767 761.3598253944499 496.1962695577984Q766.1720077628354 502.4399238965263 768.7912969000578 505.9424616963005L768.7912969000578 505.9424616963005Q767.9385050879389 509.6581974491044 764.9537337455225 511.8510906802673Q761.9994192535391 514.0439839114304 758.9232773598244 514.0439839114304L758.9232773598244 514.0439839114304Q755.2075416070205 514.0439839114304 752.8014504228278 512.1861160350284Q750.3953592386351 510.3282481586264 747.7456132509798 506.8257103588522L747.7456132509798 506.8257103588522ZM668.3750610230535 505.516065790241L668.3750610230535 457.27241470465566L686.3446027784167 457.27241470465566L686.3446027784167 512.0947454837299Q685.0349582098055 512.5211413897894 682.8420649786425 513.0693646975801Q680.6491717474795 513.6175880053709 678.0298826102571 513.6175880053709L678.0298826102571 513.6175880053709Q673.187243391439 513.6175880053709 670.7811522072462 511.6378927272376Q668.3750610230535 509.6581974491044 668.3750610230535 505.516065790241L668.3750610230535 505.516065790241ZM874.5070247523726 462.7546477825631L800.8319035553834 473.0490632288559L799.9486548928315 459.2216531323561L866.1618477337801 450.2368822546745Q865.2785990712283 438.17596948327815 857.8471275656206 430.40947262290933Q850.3851992095799 422.61251891210765 837.227839822602 422.61251891210765L837.227839822602 422.61251891210765Q823.613627679132 422.61251891210765 814.7506842031817 432.35871105060977Q805.8572838767985 442.13536003954465 805.8572838767985 460.3180997479376L805.8572838767985 460.3180997479376L805.8572838767985 465.1607389667558Q807.4105832488723 482.70388481605954 817.369973340404 491.8104830954724Q827.3598202823688 500.88662452445254 844.6897681786428 500.88662452445254L844.6897681786428 500.88662452445254Q853.887737009354 500.88662452445254 861.3496653653947 497.8409394811706Q868.8115937214354 494.7647975874559 873.1973801837613 491.26225978768167L873.1973801837613 491.26225978768167Q875.6034713679541 492.78510230932267 877.0349433382966 494.85616813875436Q878.4359584582062 496.95769081861886 878.4359584582062 499.5769799558413L878.4359584582062 499.5769799558413Q878.4359584582062 503.7495684651375 873.7456034915521 507.3739336666429Q869.0247916744652 510.9982988681484 861.2278379636635 513.1911920993114Q853.4613411032947 515.3840853304744 843.806519516091 515.3840853304744L843.806519516091 515.3840853304744Q826.9029675258764 515.3840853304744 814.5374862501519 509.2318015430449Q802.1415481239945 503.0795177556155 795.4410410287744 490.92723443292067Q788.770990783987 478.74449425979304 788.770990783987 461.20134841048935L788.770990783987 461.20134841048935Q788.770990783987 448.71403973303353 792.3648991350597 438.93739074409865Q795.9892643365652 429.1911986055966 802.4765734787555 422.39932095907795Q808.9334257705133 415.60744331255927 817.9181966481948 411.9830781110538Q826.9029675258764 408.3587129095484 837.4410377756318 408.3587129095484L837.4410377756318 408.3587129095484Q850.8115951156393 408.3587129095484 861.0146400106337 414.0541439404855Q871.2176849056281 419.7495749714227 877.0349433382966 429.952619866417Q882.8217449205321 440.1556647614114 882.8217449205321 453.3130241483892L882.8217449205321 453.3130241483892Q882.8217449205321 458.12520651677465 880.6288516893691 460.22672919663916Q878.4359584582062 462.29779502607084 874.5070247523726 462.7546477825631L874.5070247523726 462.7546477825631ZM988.3242748198171 462.7546477825631L914.6186967723952 473.0490632288559L913.7659049602763 459.2216531323561L979.9790978012247 450.2368822546745Q979.0958491386731 438.17596948327815 971.6339207826323 430.40947262290933Q964.2024492770246 422.61251891210765 951.0450898900467 422.61251891210765L951.0450898900467 422.61251891210765Q937.4308777465766 422.61251891210765 928.5679342706263 432.35871105060977Q919.6745339442431 442.13536003954465 919.6745339442431 460.3180997479376L919.6745339442431 460.3180997479376L919.6745339442431 465.1607389667558Q921.1973764658841 482.70388481605954 931.1872234078487 491.8104830954724Q941.1770703498133 500.88662452445254 958.4765613956546 500.88662452445254L958.4765613956546 500.88662452445254Q967.7049870767987 500.88662452445254 975.1669154328393 497.8409394811706Q982.5983869384471 494.7647975874559 986.9841734007731 491.26225978768167L986.9841734007731 491.26225978768167Q989.4207214353986 492.78510230932267 990.8217365553083 494.85616813875436Q992.2532085256508 496.95769081861886 992.2532085256508 499.5769799558413L992.2532085256508 499.5769799558413Q992.2532085256508 503.7495684651375 987.5323967085639 507.3739336666429Q982.8420417419097 510.9982988681484 975.0450880311081 513.1911920993114Q967.2481343203063 515.3840853304744 957.6237695835356 515.3840853304744L957.6237695835356 515.3840853304744Q940.7202175933211 515.3840853304744 928.3242794671637 509.2318015430449Q915.9587981914392 503.0795177556155 909.2582910962191 490.92723443292067Q902.5577840009988 478.74449425979304 902.5577840009988 461.20134841048935L902.5577840009988 461.20134841048935Q902.5577840009988 448.71403973303353 906.1821492025043 438.93739074409865Q909.8065144040098 429.1911986055966 916.2633666957673 422.39932095907795Q922.7506758379578 415.60744331255927 931.7354467156395 411.9830781110538Q940.7202175933211 408.3587129095484 951.2582878430765 408.3587129095484L951.2582878430765 408.3587129095484Q964.628845183084 408.3587129095484 974.8318900780783 414.0541439404855Q985.0349349730726 419.7495749714227 990.8217365553083 429.952619866417Q996.6389949879767 440.1556647614114 996.6389949879767 453.3130241483892L996.6389949879767 453.3130241483892Q996.6389949879767 458.12520651677465 994.4461017568138 460.22672919663916Q992.2532085256508 462.29779502607084 988.3242748198171 462.7546477825631L988.3242748198171 462.7546477825631ZM1023.8369624244841 505.72926374327074L1023.8369624244841 454.6226687170004L1041.3801082737878 457.27241470465566L1041.3801082737878 512.0947454837299Q1040.2836616582063 512.5211413897894 1038.0907684270433 513.0693646975801Q1035.8978751958803 513.6175880053709 1033.2785860586582 513.6175880053709L1033.2785860586582 513.6175880053709Q1028.6491447928697 513.6175880053709 1026.2430536086767 511.7597201289689Q1023.8369624244841 509.9018522525669 1023.8369624244841 505.72926374327074L1023.8369624244841 505.72926374327074ZM1041.3801082737878 376.77495901071507L1041.3801082737878 465.5871348728153L1023.8369624244841 463.1810436886226L1023.8369624244841 370.4094772702559Q1024.9334090400657 369.98308136419644 1027.2481296729597 369.4348580564057Q1029.5323934554212 368.88663474861494 1031.9384846396142 368.88663474861494L1031.9384846396142 368.88663474861494Q1036.7811238584322 368.88663474861494 1039.0653876408937 370.7445026250169Q1041.3801082737878 372.6023705014189 1041.3801082737878 376.77495901071507L1041.3801082737878 376.77495901071507ZM1176.4562399433403 393.8917089539593L1176.4562399433403 393.8917089539593L1176.4562399433403 393.8917089539593Q1176.4562399433403 396.7241960442115 1174.5983720669383 399.03891667710576Q1172.7405041905363 401.35363731 1170.3344130063438 402.4500839255815L1170.3344130063438 402.4500839255815Q1164.8521799284363 398.490693369315 1157.0552262176348 394.9881555695408Q1149.2582725068328 391.48561776976663 1136.9841617824068 391.48561776976663L1136.9841617824068 391.48561776976663Q1123.6136044423993 391.48561776976663 1112.9841636413453 397.60744470676326Q1102.3547228402917 403.7597284941927 1096.0806116511308 415.9120118168875Q1089.8369573124028 428.0947519900151 1089.8369573124028 446.0642937453783L1089.8369573124028 446.0642937453783Q1089.8369573124028 473.0490632288559 1103.1161441011122 486.6328185218932Q1116.3648740393883 500.2470306653633 1137.6542124919288 500.2470306653633L1137.6542124919288 500.2470306653633Q1149.0450745538033 500.2470306653633 1157.6034495254253 496.95769081861886Q1166.1618244970473 493.6683509718744 1171.6440575749548 489.49576246257817L1171.6440575749548 489.49576246257817Q1173.8369508061178 490.37901112513 1175.8166460842513 492.6632749075914Q1177.7658845119513 494.9779955404856 1177.7658845119513 498.0541374342003L1177.7658845119513 498.0541374342003Q1177.7658845119513 500.2470306653633 1176.5780673450718 502.318096494795Q1175.3597933277588 504.41961917465954 1172.5273062375068 506.3688576023599L1172.5273062375068 506.3688576023599Q1167.4714690656588 509.9018522525669 1158.6998961410068 512.6429687915206Q1149.9283232163548 515.3840853304744 1136.3445679233178 515.3840853304744L1136.3445679233178 515.3840853304744Q1118.1313713644918 515.3840853304744 1103.3293420541418 507.5871316196727Q1088.5273127437918 499.79017790887104 1079.9689377721697 484.43992529073023Q1071.4105628005473 469.0896726725895 1071.4105628005473 446.0642937453783L1071.4105628005473 446.0642937453783Q1071.4105628005473 423.03891481816714 1080.3039631269307 407.47546424699664Q1089.1973634533138 391.91201367582613 1103.7557379602013 384.11505996502444Q1118.3445693175217 376.3485631046556 1135.6745172137953 376.3485631046556L1135.6745172137953 376.3485631046556Q1147.7354299851918 376.3485631046556 1156.9333988159033 378.967852241878Q1166.1618244970473 381.6175982295333 1171.3090322201938 385.66835933709825Q1176.4562399433403 389.71912044466313 1176.4562399433403 393.8917089539593ZM1222.5069977977623 430.07444726814833L1222.5069977977623 430.07444726814833L1222.5069977977623 464.70388621026353L1204.9638519484588 464.70388621026353L1204.9638519484588 431.3840918367595Q1204.9638519484588 426.3282546649116 1206.8217198248608 423.37394017292814Q1208.7100445516953 420.4196256809447 1213.0958310140213 417.5566817402597L1213.0958310140213 417.5566817402597Q1218.7912620449588 413.84094598745577 1228.6592815851918 411.0998294485021Q1238.5273011254253 408.3587129095484 1250.5882138968218 408.3587129095484L1250.5882138968218 408.3587129095484Q1268.1313597461253 408.3587129095484 1268.1313597461253 417.13028583420027L1268.1313597461253 417.13028583420027Q1268.1313597461253 419.3231790653632 1267.4613090366033 421.1810469417652Q1266.8217151775143 423.03891481816714 1265.7252685619328 424.37901623721115L1265.7252685619328 424.37901623721115Q1263.5323753307698 423.9221634807189 1259.9993806805628 423.4957675746594Q1256.4968428807883 423.03891481816714 1252.9943050810143 423.03891481816714L1252.9943050810143 423.03891481816714Q1242.9130875877513 423.03891481816714 1235.2379612786808 425.14043749803164Q1227.5628349696103 427.21150332746333 1222.5069977977623 430.07444726814833ZM1204.9638519484588 505.72926374327074L1204.9638519484588 454.6226687170004L1222.5069977977623 457.27241470465566L1222.5069977977623 512.0947454837299Q1221.4105511821813 512.5211413897894 1219.2176579510183 513.0693646975801Q1217.0247647198553 513.6175880053709 1214.4054755826328 513.6175880053709L1214.4054755826328 513.6175880053709Q1209.8064911672768 513.6175880053709 1207.3699431326513 511.7597201289689Q1204.9638519484588 509.9018522525669 1204.9638519484588 505.72926374327074L1204.9638519484588 505.72926374327074ZM1324.9333858033328 501.13027932791505L1324.9333858033328 501.13027932791505L1324.9333858033328 501.13027932791505Q1334.1313546340439 501.13027932791505 1340.1618110197423 499.2419546010803Q1346.1922674054404 497.3840867246783 1348.8115565426629 495.64804625000767L1348.8115565426629 495.64804625000767L1348.8115565426629 463.8510943981446L1321.6440459565883 466.6835814883968Q1310.2227270442813 467.56683015094853 1304.7404939663738 471.7394186602447Q1299.2582608884663 475.9120071695409 1299.2582608884663 483.80033143164104L1299.2582608884663 483.80033143164104Q1299.2582608884663 491.9018536467709 1305.7455700306568 496.50083806212655Q1312.2024223224143 501.13027932791505 1324.9333858033328 501.13027932791505ZM1324.6897309998703 408.3587129095484L1324.6897309998703 408.3587129095484L1324.6897309998703 408.3587129095484Q1343.7861762212478 408.3587129095484 1354.9638403300924 416.9170878811705Q1366.1415044389369 425.47546285279265 1366.1415044389369 443.87140051421534L1366.1415044389369 443.87140051421534L1366.1415044389369 495.86124420303736Q1366.1415044389369 500.6734265714228 1364.2836365625349 503.20134515734674Q1362.4257686861329 505.72926374327074 1358.6795760828963 507.9221569744337L1358.6795760828963 507.9221569744337Q1353.4409978084514 510.75464406468586 1344.6694248837994 513.1911920993114Q1335.8978519591474 515.5972832835041 1324.9333858033328 515.5972832835041L1324.9333858033328 515.5972832835041Q1304.3140980603143 515.5972832835041 1293.0146065497383 507.4653042179414Q1281.7151150391624 499.36378200281155 1281.7151150391624 484.0135293846708L1281.7151150391624 484.0135293846708Q1281.7151150391624 469.7597233821115 1291.2481092246348 462.2064244747724Q1300.8115602605403 454.6226687170004 1317.6846554003218 453.09982619535947L1317.6846554003218 453.09982619535947L1348.8115565426629 450.0236843016448L1348.8115565426629 443.87140051421534Q1348.8115565426629 432.9069343584005 1342.2328768491739 427.88155403698534Q1335.6541971556849 422.8257168651374 1324.4765330468404 422.8257168651374L1324.4765330468404 422.8257168651374Q1315.4917621691588 422.8257168651374 1307.2684125522978 425.47546285279265Q1299.0450629354364 428.0947519900151 1292.6795811949773 431.3840918367595L1292.6795811949773 431.3840918367595Q1290.9435407203068 429.8612493151186 1289.5120687499643 427.7597266352541Q1288.0805967796218 425.6886608058224 1288.0805967796218 423.4957675746594L1288.0805967796218 423.4957675746594Q1288.0805967796218 417.80033654372227 1294.4460785200808 414.7241946500075L1294.4460785200808 414.7241946500075Q1300.3547075040478 411.6480527562928 1308.1516612148494 410.00338283292064Q1315.9181580752183 408.3587129095484 1324.6897309998703 408.3587129095484ZM1454.5272843949774 431.1708938837298L1412.8623130028814 431.1708938837298L1412.8623130028814 416.9170878811705L1459.339466763363 416.9170878811705Q1460.009517472885 417.80033654372227 1460.6491113319744 419.65820442012426Q1461.3191620414964 421.5160722965262 1461.3191620414964 423.9221634807189L1461.3191620414964 423.9221634807189Q1461.3191620414964 427.4247012804931 1459.5526647163929 429.31302600732784Q1457.816624241722 431.1708938837298 1454.5272843949774 431.1708938837298L1454.5272843949774 431.1708938837298ZM1415.9384548965959 403.0896777846707L1415.9384548965959 403.0896777846707L1415.9384548965959 428.7648026995371L1398.6085070003219 428.7648026995371L1398.6085070003219 402.20642912211895Q1398.6085070003219 389.29272453860364 1403.3293188174089 381.28257287477226Q1408.019673784063 373.2724212109409 1416.9130741104464 369.4348580564057Q1425.8064744368294 365.5972949018705 1438.0805851612554 365.5972949018705L1438.0805851612554 365.5972949018705Q1450.5678938387114 365.5972949018705 1457.6947968399909 368.88663474861494Q1464.8216998412704 372.1759745953594 1464.8216998412704 376.9881569637448L1464.8216998412704 376.9881569637448Q1464.8216998412704 379.4247049983703 1463.84708062742 381.37394342607075Q1462.8420045631374 383.353638704204 1461.1059640884664 385.1201360293075L1461.1059640884664 385.1201360293075Q1457.1465735322 382.9272427981445 1451.237944548233 381.495770827802Q1445.2988587138334 380.0642988574595 1439.816625635926 380.0642988574595L1439.816625635926 380.0642988574595Q1426.4460682959184 380.0642988574595 1421.1770331710409 385.54653193536694Q1415.9384548965959 391.0287650132744 1415.9384548965959 403.0896777846707ZM1398.6085070003219 505.72926374327074L1398.6085070003219 419.10998111233346L1416.1516528496259 419.10998111233346L1416.1516528496259 512.0947454837299Q1415.0552062340444 512.5211413897894 1412.8623130028814 513.0693646975801Q1410.6694197717184 513.6175880053709 1408.019673784063 513.6175880053709L1408.019673784063 513.6175880053709Q1403.4206893687074 513.6175880053709 1401.0145981845144 511.7597201289689Q1398.6085070003219 509.9018522525669 1398.6085070003219 505.72926374327074L1398.6085070003219 505.72926374327074ZM1485.8673834903484 485.99322466280404L1485.8673834903484 454.6226687170004L1503.410529339652 454.6226687170004L1503.410529339652 484.89677804722254Q1503.410529339652 493.6683509718744 1508.4663665115 497.29271617337986Q1513.522203683348 500.88662452445254 1522.293776608 500.88662452445254L1522.293776608 500.88662452445254Q1526.009512360804 500.88662452445254 1530.6084967761594 499.5769799558413Q1535.207481191515 498.26733538723005 1538.28362308523 496.50083806212655L1538.28362308523 496.50083806212655Q1539.593267653841 497.8409394811706 1540.6897142694224 499.79017790887104Q1541.786160885004 501.7698731870043 1541.786160885004 504.41961917465954L1541.786160885004 504.41961917465954Q1541.786160885004 509.2318015430449 1536.090729854067 512.3079434367596Q1530.39529882313 515.3840853304744 1520.314081329867 515.3840853304744L1520.314081329867 515.3840853304744Q1504.963828711726 515.3840853304744 1495.4308345262534 508.5617508335229Q1485.8673834903484 501.7698731870043 1485.8673834903484 485.99322466280404L1485.8673834903484 485.99322466280404ZM1534.7810852854554 427.88155403698534L1494.882611218463 427.88155403698534L1494.882611218463 413.4145500813963L1539.3800697008114 413.4145500813963Q1540.0501204103334 414.26734189351527 1540.6897142694224 416.2470371716485Q1541.3597649789444 418.2267324497817 1541.3597649789444 420.4196256809447L1541.3597649789444 420.4196256809447Q1541.3597649789444 423.9221634807189 1539.593267653841 425.90185875885214Q1537.8572271791704 427.88155403698534 1534.7810852854554 427.88155403698534L1534.7810852854554 427.88155403698534ZM1503.410529339652 388.1962779230222L1503.410529339652 461.20134841048935L1485.8673834903484 461.20134841048935L1485.8673834903484 381.830796182563Q1486.96383010593 381.37394342607075 1489.278550738824 380.82572011828Q1491.5932713717184 380.27749681048925 1494.212560508941 380.27749681048925L1494.212560508941 380.27749681048925Q1498.8115449242964 380.27749681048925 1501.1262655571904 382.165821537324Q1503.410529339652 384.023689413726 1503.410529339652 388.1962779230222L1503.410529339652 388.1962779230222ZM1659.9891974147745 393.00846029140763L1659.9891974147745 393.00846029140763L1659.105948752223 393.00846029140763Q1655.8166089054785 402.20642912211895 1651.339451891854 414.93739260303727Q1646.831838027797 427.66835608395564 1642.11102621071 441.13028397526165Q1637.4206712440555 454.6226687170004 1633.2480827347595 466.2571855823373L1633.2480827347595 466.2571855823373L1632.151636119178 469.5465254290818Q1630.841991550567 473.4754591349154 1628.8622962724335 479.4145449693151Q1626.8826009943004 485.323173953282 1624.6897077631374 491.8104830954724Q1622.4968145319745 498.26733538723005 1620.517119253841 503.87139586686874Q1618.537423975708 509.4449994960747 1617.4409773601265 512.9475372958489L1617.4409773601265 512.9475372958489Q1615.9181348384855 513.6175880053709 1614.2734649151134 513.9526133601319Q1612.628794991741 514.2876387148929 1610.2227038075484 514.2876387148929L1610.2227038075484 514.2876387148929Q1606.7201660077744 514.2876387148929 1603.9790494688204 512.3993139880581Q1601.237932929867 510.54144611165617 1601.237932929867 506.3688576023599L1601.237932929867 506.3688576023599Q1601.237932929867 504.41961917465954 1601.877526788956 502.318096494795Q1602.547577498478 500.2470306653633 1603.43082616103 497.8409394811706L1603.43082616103 497.8409394811706Q1606.050115298252 490.37901112513 1609.8876784527874 479.62774292234485Q1613.7252416073225 468.8764747195597 1618.3242260226784 456.1759680890742Q1622.923210438034 443.4450046081559 1627.979047609882 430.07444726814833Q1633.0348847817295 416.70388992814077 1637.8470671501154 403.97292644722245Q1642.6592495185005 391.24196296630413 1646.831838027797 380.7343495669815L1646.831838027797 380.7343495669815Q1648.5983353529004 379.85110090442976 1652.1008731526745 378.967852241878Q1655.603410952449 378.08460357932626 1659.3496035556855 378.08460357932626L1659.3496035556855 378.08460357932626Q1663.7353900180115 378.08460357932626 1667.7861511255765 379.4247049983703Q1671.8369122331414 380.7343495669815 1672.933358848723 383.81049146069626L1672.933358848723 383.81049146069626Q1678.2023939736005 396.51099809118176 1684.2328503592985 412.622671970143Q1690.2633067449965 428.7648026995371 1696.385133681993 446.1861211471096Q1702.5374174694225 463.60743959468203 1708.1414779490615 480.0541388284043Q1713.7150815782675 496.50083806212655 1718.1008680405935 509.9018522525669L1718.1008680405935 509.9018522525669Q1716.5780255189525 511.8510906802673 1714.0501069330285 513.0693646975801Q1711.5221883471045 514.2876387148929 1708.4460464533895 514.2876387148929L1708.4460464533895 514.2876387148929Q1704.3039147945265 514.2876387148929 1702.111021563363 512.3993139880581Q1699.9181283322005 510.54144611165617 1698.3648289601265 506.1556596493302L1698.3648289601265 506.1556596493302L1686.30391618873 470.42977409163353L1684.5678757140595 464.27749030420404Q1680.1820892517335 450.9069329641965 1675.4612774346465 437.2927208207264Q1670.74046561756 423.70896552768914 1666.689704509995 412.0744486623523Q1662.63894340243 400.47038864744826 1659.9891974147745 393.00846029140763ZM1693.9790424978005 477.0084537851224L1623.593261147556 477.0084537851224L1629.288692178493 462.29779502607084L1690.4765046980265 462.29779502607084L1693.9790424978005 477.0084537851224ZM1744.202388861519 505.516065790241L1744.202388861519 432.9069343584005L1761.9587326638525 432.9069343584005L1761.9587326638525 512.0947454837299Q1760.862286048271 512.5211413897894 1758.669392817108 513.0693646975801Q1756.476499585945 513.6175880053709 1753.8572104487225 513.6175880053709L1753.8572104487225 513.6175880053709Q1749.0145712299045 513.6175880053709 1746.608480045712 511.6378927272376Q1744.202388861519 509.6581974491044 1744.202388861519 505.516065790241L1744.202388861519 505.516065790241ZM1761.9587326638525 386.216582644889L1761.9587326638525 447.6175931174521L1744.202388861519 447.6175931174521L1744.202388861519 379.6379029514Q1745.2988354771005 379.18105019490775 1747.6135561099945 378.632826887117Q1749.897819892456 378.08460357932626 1752.5475658801115 378.08460357932626L1752.5475658801115 378.08460357932626Q1757.359748248497 378.08460357932626 1759.674468881391 379.97292830616107Q1761.9587326638525 381.830796182563 1761.9587326638525 386.216582644889L1761.9587326638525 386.216582644889Z " fill="#8b5cf6" transform="matrix(0.49660640168005565,0,0,0.49660640168005565,0,81.19656316327287)"/></g></svg>